<svg xmlns="http://www.w3.org/2000/svg" viewBox="0 0 36 36">
  <rect x="14" y="2" width="3" height="3" fill="#ef9f27"/>
  <rect x="19" y="2" width="3" height="3" fill="#ef9f27"/>
  <rect x="11" y="5" width="3" height="3" fill="#ef9f27" opacity="0.8"/>
  <rect x="22" y="5" width="3" height="3" fill="#ef9f27" opacity="0.8"/>
  <rect x="5" y="14" width="3" height="3" fill="#ef9f27"/>
  <rect x="5" y="19" width="3" height="3" fill="#ef9f27"/>
  <rect x="28" y="14" width="3" height="3" fill="#ef9f27"/>
  <rect x="28" y="19" width="3" height="3" fill="#ef9f27"/>
  <rect x="11" y="28" width="3" height="3" fill="#ef9f27" opacity="0.8"/>
  <rect x="22" y="28" width="3" height="3" fill="#ef9f27" opacity="0.8"/>
  <rect x="14" y="31" width="3" height="3" fill="#ef9f27"/>
  <rect x="19" y="31" width="3" height="3" fill="#ef9f27"/>
  <rect x="12" y="12" width="12" height="12" rx="1" fill="#0f6e56"/>
  <rect x="16" y="16" width="4" height="4" fill="#9fe1cb"/>
  <rect x="19" y="19" width="3" height="3" fill="#ef9f27" opacity="0.9"/>
</svg>